<svg width="340" height="448" viewBox="0 0 340 448" fill="none" xmlns="http://www.w3.org/2000/svg">
<path fill-rule="evenodd" clip-rule="evenodd" d="M88 0.5C136.601 0.5 176 36.0932 176 79.9998C176 123.906 136.601 159.5 88 159.5C39.399 159.5 0 123.906 0 79.9998C0 36.0932 39.399 0.5 88 0.5Z" fill="#F7D068"/>
<path fill-rule="evenodd" clip-rule="evenodd" d="M149.337 446.976C99.5543 449.849 57.2537 414.133 54.8561 367.204C52.4585 320.274 90.8717 279.9 140.654 277.027C190.437 274.154 232.738 309.869 235.135 356.799C237.533 403.729 199.119 444.102 149.337 446.976Z" fill="#56C3C3"/>
<path fill-rule="evenodd" clip-rule="evenodd" d="M319.505 237.076C307.911 237.746 298.059 229.428 297.501 218.498C296.942 207.568 305.889 198.166 317.483 197.497C329.077 196.828 338.928 205.145 339.487 216.075C340.045 227.005 331.099 236.407 319.505 237.076Z" fill="#56C3C3"/>
</svg>
