<?xml version="1.0" encoding="UTF-8"?>
<svg id="Layer_2" data-name="Layer 2" xmlns="http://www.w3.org/2000/svg" viewBox="0 0 1171.03 223.42">
  <defs>
    <style>
      .cls-1 {
        stroke-width: 0px;
      }
    </style>
  </defs>
  <path class="cls-1" d="m45.94,176.83c-14.44-8.44-25.71-19.84-33.8-34.19C4.05,128.28,0,112.32,0,94.74s4.05-33.54,12.14-47.89c8.09-14.35,19.35-25.75,33.8-34.19C60.38,4.22,76.64,0,94.74,0c14.09,0,27.67,3.26,40.72,9.79,13.05,6.53,23.92,15.4,32.62,26.62,8.7,11.22,14.18,23.54,16.44,36.93h-35.76c-1.92-7.65-5.57-14.49-10.96-20.49-5.4-6-11.88-10.66-19.44-13.96-7.57-3.3-15.44-4.96-23.62-4.96-11.83,0-22.27,2.61-31.32,7.83-9.05,5.22-16.1,12.44-21.14,21.66-5.05,9.22-7.57,19.66-7.57,31.32s2.52,22.1,7.57,31.32c5.04,9.23,12.09,16.44,21.14,21.66,9.05,5.22,19.49,7.83,31.32,7.83,8,0,15.83-1.65,23.49-4.96,7.65-3.3,14.22-7.96,19.71-13.96,5.48-6,9.18-12.83,11.09-20.49h35.5c-2.09,13.4-7.48,25.71-16.18,36.93-8.7,11.22-19.57,20.1-32.62,26.62-13.05,6.53-26.71,9.79-40.98,9.79-18.1,0-34.37-4.22-48.81-12.66Z"/>
  <path class="cls-1" d="m186.88,3.39h129.46v32.1h-129.46V3.39Zm47.24,25.32h34.71v157.38h-34.71V28.71Z"/>
  <path class="cls-1" d="m364.35,3.39h43.59l65.77,182.7h-35.5l-52.46-150.34h.26l-52.72,150.34h-35.23L364.35,3.39Zm-18.79,112.75h79.6l6.79,30.28h-91.87l5.48-30.28Z"/>
  <path class="cls-1" d="m488.33,155.82h18.79c3.13-2.44,5.91-5.7,8.35-9.79,2.43-4.09,4.61-10.44,6.52-19.05,1.91-8.61,3.13-19.97,3.65-34.06l2.87-89.52h130.24v152.42h22.45v67.6h-32.1v-37.32h-128.67v37.32h-32.1v-67.6Zm136.76,0V32.89h-64.73l-1.83,64.21c-.52,14.62-1.87,26.54-4.04,35.76-2.18,9.22-5.44,16.88-9.79,22.97h80.39Z"/>
  <path class="cls-1" d="m851.9,186.09h-32.62V42.28l10.18,4.18-102.31,139.63h-27.14V3.39h32.62v141.46l-8.87-5.22L822.67,3.39h29.23v182.7Z"/>
  <path class="cls-1" d="m873.23,93.44L943.18,3.39h38.89l-79.34,102.83v-25.84l81.69,105.71h-39.15l-72.04-92.65Z"/>
  <path class="cls-1" d="m1061.67,3.39h43.59l65.77,182.7h-35.5l-52.46-150.34h.26l-52.72,150.34h-35.24L1061.67,3.39Zm-18.79,112.75h79.61l6.79,30.28h-91.87l5.48-30.28Z"/>
</svg>